<svg version="1.2" xmlns="http://www.w3.org/2000/svg" viewBox="0 0 1367 1367" width="1367" height="1367">
	<title>cabforum-logo</title>
	<style>
		.s0 { fill: #105a75;stroke: #3bb8ea;stroke-miterlimit:100;stroke-width: 34.2 } 
		.s1 { fill: #3bb8ea } 
		.s2 { fill: #ffffff } 
	</style>
	<path id="Box" class="s0" d="m18.1 396.8h1331.3v572.4h-1331.3z"/>
	<path id="Shape 2" class="s1" d="m-140 0h100v100h-100z"/>
	<path id="B" fill-rule="evenodd" class="s2" d="m981.5 909.4v-453.3h129.5q83.1 0 125.5 25.4 42.7 25.4 42.7 89.3 0 25.9-7.6 46.6-7.4 20.8-21.7 34-14.1 13.3-34.6 17.5v3q20.8 4.6 37.6 16.2 16.6 11 26.6 32.7 10.3 21.5 10.3 57 0 41.4-18.4 70.9-18.5 29.3-52.9 45.2-34.1 15.5-81.4 15.5zm88.1-374.6v100.9h51.3q38.3 0 53-13.2 14.8-13.1 14.8-39 0-26.1-17.5-37.2-17.3-11.5-55.2-11.5zm54.5 177h-54.5v118.2h57.5q39.7 0 55.4-16.6 15.7-16.9 15.7-45 0-16.9-7-29.6-6.7-12.7-23-19.8-16-7.2-44.1-7.2z"/>
	<path id="CA" fill-rule="evenodd" class="s2" d="m284.4 529.5q-26.1 0-46.2 10.8-19.8 10.7-33.4 30.7-13.4 20.4-20.3 48.7-7 28.7-7 64.2 0 48.2 10.9 82.2 11.5 33.9 35.1 51.9 23.5 17.5 60.9 17.5 25.8 0 51.7-6.2 26.3-6 56.7-17.5v80.5q-28.1 12.5-55.6 18-27.2 5.3-61.4 5.3-65.7 0-108.2-28.8-42.2-29.1-62.8-81.3-20.3-52.4-20.3-122.1 0-51.4 13.2-94.4 13.1-42.7 38.3-74 25.4-31.2 62.8-48.3 37.1-17.1 85.6-17.1 31.6 0 63.4 8.6 31.9 8.5 61.2 23.3l-29.3 78.2q-23.8-12.2-48-21.2-24-9-47.3-9zm556.8 379.9h-97.1l-30.9-107.8h-155.1l-30.9 107.8h-97.4l150.2-455.1h110.5zm-260.7-188.6h111l-31-105.5q-2.7-10.4-7.8-26.8-4.6-16.8-9.5-33.9-4.8-17.3-7.6-30-3 12.7-8.1 31.6-5 18.5-9.6 35.3-4.7 16.9-6.7 23.8z"/>
	<path id="Pipe" class="s2" d="m916.9 457h9l-0.7 452.4h-9.2z"/>
</svg>