<svg version="1.2" xmlns="http://www.w3.org/2000/svg" viewBox="0 0 3276 608" width="3276" height="608">
	<title>cabforum-logo</title>
	<style>
		.s0 { fill: #105a75;stroke: #3bb8ea;stroke-miterlimit:100;stroke-width: 34.2 } 
		.s1 { fill: #ffffff } 
		.s2 { fill: #4d4d4f } 
	</style>
	<path id="Box" class="s0" d="m18.1 17.8h1331.3v572.4h-1331.3z"/>
	<path id="B" fill-rule="evenodd" class="s1" d="m981.5 530.4v-453.3h129.5q83.1 0 125.5 25.4 42.7 25.4 42.7 89.3 0 25.9-7.6 46.6-7.4 20.8-21.7 34-14.1 13.3-34.6 17.5v3q20.8 4.6 37.6 16.2 16.6 11 26.6 32.7 10.3 21.5 10.3 57 0 41.4-18.4 70.9-18.5 29.3-52.9 45.2-34.1 15.5-81.4 15.5zm88.1-374.6v100.9h51.3q38.3 0 53-13.2 14.8-13.1 14.8-39 0-26.1-17.5-37.2-17.3-11.5-55.2-11.5zm54.5 177h-54.5v118.2h57.5q39.7 0 55.4-16.6 15.7-16.9 15.7-45 0-16.9-7-29.6-6.7-12.7-23-19.8-16-7.2-44.1-7.2z"/>
	<path id="CA" fill-rule="evenodd" class="s1" d="m284.4 150.5q-26.1 0-46.2 10.8-19.8 10.7-33.4 30.7-13.4 20.4-20.3 48.7-7 28.7-7 64.2 0 48.2 10.9 82.2 11.5 33.9 35.1 51.9 23.5 17.5 60.9 17.5 25.8 0 51.7-6.2 26.3-6 56.7-17.5v80.5q-28.1 12.5-55.6 18-27.2 5.3-61.4 5.3-65.7 0-108.2-28.8-42.2-29.1-62.8-81.3-20.3-52.4-20.3-122.1 0-51.4 13.2-94.4 13.1-42.7 38.3-74 25.4-31.2 62.8-48.3 37.1-17.1 85.6-17.1 31.6 0 63.4 8.6 31.9 8.5 61.2 23.3l-29.3 78.2q-23.8-12.2-48-21.2-24-9-47.3-9zm556.8 379.9h-97.1l-30.9-107.8h-155.1l-30.9 107.8h-97.4l150.2-455.1h110.5zm-260.7-188.6h111l-31-105.5q-2.7-10.4-7.8-26.8-4.6-16.8-9.5-33.9-4.8-17.3-7.6-30-3 12.7-8.1 31.6-5 18.5-9.6 35.3-4.7 16.9-6.7 23.8z"/>
	<path id="CA/BROWSER FORUM" fill-rule="evenodd" class="s2" d="m1484 374.4q-14.8 0-22.8-6.3-8.1-6.2-11.4-16.6-3-10.4-3-23.1v-48.9q0-14.1 3-24.4 3.3-10.4 11.4-16 8-6 22.8-6 12.9 0 20.5 4.9 7.7 4.8 10.9 13.6 3.4 9 3.4 21.5v10.8h-18.2v-9.7q0-7.6-0.9-13.4-0.7-6-4.2-9.2-3.4-3.2-11.3-3.2-8.3 0-12 3.4-3.9 3.5-5 9.9-1 6.3-1 14.8v54.9q0 10.4 1.6 16.7 1.9 6 5.8 8.5 3.9 2.5 10.6 2.5 7.9 0 11.1-3.4 3.5-3.7 4.4-9.7 0.9-6.2 0.9-14.3v-10.4h18.2v10.4q0 12.4-3.2 22.4-3 9.4-10.4 15-7.6 5.3-21.2 5.3zm96.2-1.6h-18l29.3-138.3h18.7l29.6 138.3h-18.3l-6.4-34.9h-28.2zm20.8-111l-11.5 62.3h23zm95.1 111h-15.7l37.2-138.2h15.9zm122.5 0h-36.9v-138.5h31.9q9.2 0 16.1 2.1 6.9 2 11.5 6.4 4.7 4.2 7 10.9 2 6.4 2 15.4 0 8.6-2 14.8-2.1 6.2-6.5 9.7-4.4 3.7-11.1 4.6 8.3 1.9 13.4 6.5 5.1 4.4 7.6 11.8 2.6 6.9 2.6 16.8 0 8.8-2.1 16.2-2.1 7.3-6.5 12.4-4.4 5.1-11 8.1-6.7 2.8-16 2.8zm-17.5-66v52.1h12.9q12.9 0 17.3-6 4.4-6.2 4.4-19.6 0-8.8-2.5-14.5-2.1-6-7.2-9-5.1-3-13.6-3zm0-58v43.2h11.5q8.1 0 12.7-2.1 4.6-2.5 6.5-7.6 1.8-5.1 1.8-13.2 0-9.7-2.7-13.8-3-4.4-9-5.3-6.3-1.2-16.2-1.2zm121.9 124h-19.2v-138.5h27.7q13.8 0 23.1 3.9 9 3.5 13.1 11.8 4.6 7.8 4.6 21 0 8.1-1.8 14.8-1.6 6.4-5.5 11-3.7 4.4-9.7 6.5l19.6 69.5h-18.7l-18-64.9h-15.2zm0-124.6v45.7h7.3q8.4 0 13.4-1.9 5.1-2 7.6-7.1 2.4-4.9 2.4-13.9 0-12-4.4-17.3-4.6-5.5-17.8-5.5zm137.3 126q-14.1 0-22.4-5.3-8.5-5.5-12-15.7-3.7-10.2-3.7-23.8v-52.6q0-13.6 3.7-23.3 3.7-9.9 12-15 8.3-5.3 22.4-5.3 13.9 0 22.2 5.3 8 5.3 11.7 15 3.7 9.7 3.7 23.3v52.6q0 13.6-3.7 23.6-3.7 10.1-11.7 15.9-8.3 5.3-22.2 5.3zm0-15.2q7.6 0 11.5-3 4-3.3 5.4-8.8 1.3-6 1.3-13.6v-60.7q0-7.6-1.3-13.2-1.4-5.5-5.4-8.5-3.9-3-11.5-3-7.8 0-11.8 3-3.9 3-5.3 8.5-1.4 5.6-1.4 13.2v60.7q0 7.6 1.4 13.6 1.4 5.5 5.3 8.8 4 3 11.8 3zm121.6 13.8h-14.5l-22.6-138.5h16.1l14.8 99.5 18.7-99h13.6l18.7 99.5 14.5-100h15.7l-22.1 138.5h-14.1l-19.2-102.5zm157 1.4q-12 0-20.1-5.1-7.9-5-12-14-3.9-9.3-4.6-21l17-4.7q0.5 7.2 2.1 14.1 1.9 7 6 11.3 4.2 4.2 11.6 4.2 7.3 0 11.3-3.9 3.9-4.4 3.9-12.3 0-9.4-4.4-15-4.1-5.7-10.8-11.5l-23.1-20.6q-6.9-6-10.2-12.9-3.2-7.4-3.2-17.7 0-15.3 8.8-23.6 8.7-8.3 23.7-8.3 8.1 0 14.3 2.3 6.3 1.9 10.4 6.5 4.2 4.4 6.7 11.3 2.6 6.4 3.5 15.7l-16.4 4.4q-0.7-7-2.1-12.5-1.6-5.8-5.5-9.2-3.7-3.7-10.9-3.7-7.1 0-11.3 3.9-3.9 3.9-3.9 11.3 0 6.5 2.1 10.4 2.1 4.1 6.9 8.5l23.3 20.3q7.9 7 13.9 16.4 6 9.5 6 22.4 0 10.4-4.2 17.8-4.4 7.4-11.8 11.3-7.3 3.9-17 3.9zm134.5-1.4h-54v-138.4h53.5v14.3h-34.1v45.9h27.7v13.6h-27.7v50.8h34.6zm67.2 0h-19.2v-138.5h27.7q13.8 0 23.1 3.7 9 3.7 13.1 12 4.6 7.8 4.6 21 0 8.1-1.8 14.8-1.6 6.4-5.5 11.1-3.7 4.3-10 6.4l19.9 69.5h-18.7l-18-65.1h-15.2zm0-124.4v45.7h7.3q8.3 0 13.4-2.1 5.1-1.8 7.4-6.9 2.5-4.9 2.5-13.9 0-12-4.3-17.3-4.7-5.5-17.8-5.5zm192.7 124.4h-19.4v-138.3h53.5v13.9h-34.1v46.2h26.5v13.6h-26.5zm115.4 1.6q-14.1 0-22.4-5.5-8.6-5.6-12-15.5-3.7-10.4-3.7-24v-52.4q0-13.6 3.7-23.6 3.7-9.6 12-15 8.3-5.3 22.4-5.3 13.8 0 22.1 5.3 8.1 5.4 11.8 15 3.7 10 3.7 23.6v52.6q0 13.4-3.7 23.6-3.7 10.1-11.8 15.7-8.3 5.5-22.1 5.5zm0-15.2q7.6 0 11.5-3.3 3.9-3.2 5.3-8.7 1.4-5.8 1.4-13.7v-60.4q0-7.9-1.4-13.2-1.4-5.8-5.3-8.5-3.9-3.3-11.5-3.3-7.9 0-11.8 3.3-3.9 2.7-5.3 8.5-1.4 5.3-1.4 13.2v60.4q0 7.9 1.4 13.7 1.4 5.5 5.3 8.7 3.9 3.3 11.8 3.3zm108.4 13.6h-19.4v-138.3h28q13.6 0 22.8 3.7 9 3.5 13.2 11.8 4.6 8.1 4.6 21.2 0 7.9-1.9 14.6-1.6 6.4-5.3 11-3.9 4.7-9.9 6.7l19.6 69.3h-18.7l-18-64.9h-15zm0-124.6v45.9h7.2q8.3 0 13.4-2.1 5-2 7.6-7.1 2.3-4.9 2.3-13.9 0-12-4.4-17.3-4.6-5.5-17.5-5.5zm137.3 126q-15 0-23.1-5.8-7.8-6-10.8-16.8-3-10.9-3-25.4v-91.9h18.4v92.6q0 9 1.2 16.4 1.4 7.4 5.3 11.5 3.9 4.4 12 4.4 8.3 0 12.2-4.4 3.9-4.1 5.1-11.5 1.1-7.4 1.1-16.4v-92.6h18.3v91.9q0 14.5-2.8 25.4-3 10.8-11.1 16.8-7.8 5.8-22.8 5.8zm105-1.4h-15.9l2.7-138.5h18.9l24.5 112.4 24.5-112.4h18.9l2.5 138.5h-15.7l-1.3-100.4-23.6 100.4h-10.8l-23.3-100.4z"/>
	<path id="Pipe" class="s1" d="m916.9 78h9l-0.7 452.4h-9.2z"/>
</svg>